<?xml version="1.0" encoding="iso-8859-1"?>
<!-- Generator: Adobe Illustrator 19.0.0, SVG Export Plug-In . SVG Version: 6.00 Build 0)  -->
<svg version="1.1" id="Capa_1" xmlns="http://www.w3.org/2000/svg" xmlns:xlink="http://www.w3.org/1999/xlink" x="0px" y="0px"
	 viewBox="0 0 512 512" style="enable-background:new 0 0 512 512;" xml:space="preserve">
<g>
	<g>
		<path d="M412.305,263.515c4.151,0,7.515-3.364,7.515-7.515s-3.364-7.515-7.515-7.515h-32.564v-9.018h32.564
			c4.151,0,7.515-3.364,7.515-7.515c0-4.151-3.364-7.515-7.515-7.515h-48.094c-8.663,0-16.436,4.731-20.522,12.023h-53.292
			c-3.905-6.846-9.788-12.42-16.872-15.934l-1.904-51.396c9.512-6.825,15.94-19.669,15.94-34.368
			c0-21.823-14.159-39.577-31.562-39.577s-31.562,17.755-31.562,39.577c0,14.7,6.429,27.543,15.941,34.368l-1.904,51.395
			c-13.055,6.476-22.053,19.941-22.053,35.473c0,21.823,17.755,39.577,39.577,39.577c14.72,0,27.579-8.084,34.397-20.039h53.292
			c4.086,7.292,11.86,12.023,20.522,12.023h48.094c4.151,0,7.515-3.364,7.515-7.515c0-4.151-3.364-7.515-7.515-7.515h-32.564v-9.018
			H412.305z M239.468,134.763c0-13.306,7.571-24.548,16.532-24.548s16.532,11.242,16.532,24.548
			c0,13.306-7.571,24.548-16.532,24.548S239.468,148.069,239.468,134.763z M258.336,216.498c-0.774-0.045-1.551-0.075-2.336-0.075
			s-1.562,0.029-2.336,0.074l1.562-42.18c0.258,0.008,0.514,0.024,0.773,0.024s0.516-0.017,0.773-0.024L258.336,216.498z
			 M256,280.548c-13.535,0-24.548-11.011-24.548-24.548s11.013-24.548,24.548-24.548c13.536,0,24.548,11.012,24.548,24.548
			S269.536,280.548,256,280.548z M364.712,272.532h-0.501c-3.876,0-7.26-2.625-8.229-6.384c-0.856-3.32-3.849-5.639-7.277-5.639
			h-53.392c0.168-1.481,0.265-2.984,0.265-4.509s-0.095-3.028-0.265-4.509h53.392c3.428,0,6.42-2.319,7.277-5.639
			c0.969-3.759,4.354-6.384,8.229-6.384h0.501V272.532z"/>
	</g>
</g>
<g>
	<g>
		<path d="M417.811,57.613c-3.214-2.622-7.949-2.148-10.575,1.067c-2.624,3.215-2.147,7.95,1.067,10.575
			c56.35,46.013,88.667,114.08,88.667,186.746c0,132.872-108.099,240.971-240.971,240.971S15.029,388.872,15.029,256
			S123.128,15.029,256,15.029c41.894,0,83.148,10.913,119.308,31.559c3.604,2.06,8.195,0.806,10.251-2.799
			c2.059-3.604,0.805-8.194-2.799-10.251C344.336,11.597,300.502,0,256,0C187.619,0,123.333,26.628,74.98,74.98
			C26.629,123.333,0,187.619,0,256s26.629,132.667,74.98,181.02C123.333,485.372,187.619,512,256,512s132.667-26.628,181.02-74.98
			C485.372,388.667,512,324.381,512,256C512,178.801,477.669,106.492,417.811,57.613z"/>
	</g>
</g>
<g>
	<g>
		<path d="M408.68,103.32C367.898,62.538,313.675,40.078,256,40.078c-57.675,0-111.898,22.46-152.679,63.242
			C62.538,144.102,40.078,198.325,40.078,256c0,57.675,22.46,111.898,63.242,152.68c40.782,40.782,95.005,63.241,152.679,63.241
			c57.675,0,111.898-22.46,152.68-63.242c40.782-40.783,63.241-95.005,63.241-152.68S449.462,144.102,408.68,103.32z
			 M433.577,349.847l-14.16-8.175c-3.593-2.075-8.192-0.845-10.265,2.75c-2.075,3.594-0.844,8.19,2.75,10.265l14.14,8.163
			c-16.071,25.485-37.707,47.119-63.191,63.19l-8.163-14.139c-2.075-3.595-6.673-4.824-10.265-2.75
			c-3.594,2.075-4.825,6.671-2.75,10.265l8.175,14.16c-25.946,13.768-55.247,22.011-86.333,23.16V440.36
			c0-4.151-3.364-7.515-7.515-7.515c-4.15,0-7.515,3.364-7.515,7.515v16.378c-31.087-1.149-60.387-9.393-86.333-23.16l8.175-14.16
			c2.075-3.594,0.844-8.19-2.75-10.265c-3.595-2.075-8.19-0.845-10.265,2.75l-8.164,14.14
			c-25.485-16.071-47.12-37.707-63.191-63.191l14.14-8.163c3.594-2.075,4.825-6.671,2.75-10.265
			c-2.076-3.594-6.672-4.824-10.265-2.75l-14.16,8.175c-13.767-25.947-22.01-55.248-23.159-86.334H71.64
			c4.15,0,7.515-3.364,7.515-7.515s-3.365-7.515-7.515-7.515H55.263c1.149-31.086,9.392-60.387,23.16-86.333l14.16,8.175
			c3.834,2.212,8.87,0.546,10.644-3.499c1.517-3.46,0.139-7.63-3.129-9.518l-14.14-8.163c16.071-25.485,37.707-47.12,63.191-63.191
			l8.164,14.14c2.208,3.825,7.402,4.914,10.967,2.292c3.043-2.238,3.936-6.538,2.049-9.806l-8.175-14.16
			c25.944-13.767,55.244-22.01,86.331-23.16V71.64c0,4.151,3.365,7.515,7.515,7.515c4.151,0,7.515-3.364,7.515-7.515V55.263
			c31.086,1.149,60.387,9.392,86.333,23.16l-8.175,14.16c-1.888,3.268-0.994,7.569,2.049,9.806
			c3.564,2.621,8.759,1.533,10.967-2.292l8.163-14.139c25.484,16.07,47.119,37.706,63.19,63.189l-14.14,8.163
			c-3.268,1.888-4.646,6.058-3.129,9.518c1.772,4.044,6.81,5.712,10.644,3.499l14.16-8.175
			c13.768,25.946,22.011,55.247,23.16,86.333H440.36c-4.151,0-7.515,3.364-7.515,7.515s3.364,7.515,7.515,7.515h16.377
			C455.588,294.6,447.345,323.902,433.577,349.847z"/>
	</g>
</g>
<g>
</g>
<g>
</g>
<g>
</g>
<g>
</g>
<g>
</g>
<g>
</g>
<g>
</g>
<g>
</g>
<g>
</g>
<g>
</g>
<g>
</g>
<g>
</g>
<g>
</g>
<g>
</g>
<g>
</g>
</svg>
